<?xml version="1.0" encoding="UTF-8"?>
<svg version="1.1" xmlns="http://www.w3.org/2000/svg" width="200" height="200">
<path d="M0 0 C17.70816221 -0.78028622 31.58747706 2.03607172 46 13 C48.86934275 11.66055018 51.23262174 10.09567272 53.75 8.1875 C63.40095334 1.79020683 73.95120346 -0.43276292 85.375 -0.5 C86.20177246 -0.50628418 87.02854492 -0.51256836 87.88037109 -0.51904297 C90.2109375 -0.46875 90.2109375 -0.46875 94 0 C96.46813165 3.70219748 96.24247195 5.53178751 96.22705078 9.94995117 C96.22734283 10.65264633 96.22763489 11.35534149 96.22793579 12.07933044 C96.22654308 14.40066907 96.21098487 16.72168623 96.1953125 19.04296875 C96.19158216 20.65293706 96.18873528 22.26290764 96.18673706 23.87287903 C96.17910227 28.10946932 96.15945513 32.3459224 96.1373291 36.5824585 C96.11686735 40.90586491 96.10773464 45.2292935 96.09765625 49.55273438 C96.07620906 58.03521921 96.04207501 66.51759253 96 75 C93.55665109 76.22167445 92.10333637 76.06594166 89.375 76 C84.36090657 75.95999394 79.38038656 76.10619428 74.375 76.375 C73.6639209 76.4059375 72.9528418 76.436875 72.22021484 76.46875 C70.47412297 76.57058768 68.73469538 76.77630449 67 77 C66.67 77.66 66.34 78.32 66 79 C64.68 79 63.36 79 62 79 C61.773125 79.598125 61.54625 80.19625 61.3125 80.8125 C59.66064339 83.56559434 57.76147267 84.44224619 55 86 C54.67 86.66 54.34 87.32 54 88 C54.79744629 87.83701416 55.59489258 87.67402832 56.41650391 87.50610352 C60.75662131 86.89314103 64.9597738 86.87546626 69.3359375 86.90234375 C70.50636597 86.90385437 70.50636597 86.90385437 71.70043945 86.90539551 C74.59197476 86.91059459 77.48348899 86.92455567 80.375 86.9375 C86.85125 86.958125 93.3275 86.97875 100 87 C100 61.92 100 36.84 100 11 C103 10 103 10 108 11 C108.33 36.41 108.66 61.82 109 88 C110.32 87.67 111.64 87.34 113 87 C113.99 87.33 114.98 87.66 116 88 C116.04254356 89.99954746 116.04080783 92.00041636 116 94 C115 95 115 95 112.79173279 95.12025452 C111.81688431 95.11803391 110.84203583 95.11581329 109.83764648 95.11352539 C108.73658066 95.11344986 107.63551483 95.11337433 106.50108337 95.11329651 C105.3031868 95.10813522 104.10529022 95.10297394 102.87109375 95.09765625 C101.65172623 95.0962413 100.4323587 95.09482635 99.17604065 95.09336853 C95.2631693 95.08774967 91.35035419 95.07519396 87.4375 95.0625 C84.79231853 95.05748743 82.14713617 95.0529241 79.50195312 95.04882812 C73.00128274 95.03777411 66.50064539 95.02101764 60 95 C59.505 96.98 59.505 96.98 59 99 C58.34 99 57.68 99 57 99 C57 99.66 57 100.32 57 101 C51.96686455 103.06487608 47.37234353 103.65419681 42 103 C38.36532921 101.37599816 37.22591304 100.33886956 35 97 C35 96.34 35 95.68 35 95 C34.30064835 95.00222061 33.60129669 95.00444122 32.88075256 95.00672913 C26.30295079 95.0267328 19.72515746 95.04197452 13.14733219 95.05181217 C9.76528187 95.05703975 6.3832566 95.06413511 3.0012207 95.07543945 C-0.88329777 95.08834267 -4.76780597 95.09322924 -8.65234375 95.09765625 C-9.87211411 95.10281754 -11.09188446 95.10797882 -12.34861755 95.11329651 C-14.03024742 95.11340981 -14.03024742 95.11340981 -15.74584961 95.11352539 C-16.73846298 95.115746 -17.73107635 95.11796661 -18.75376892 95.12025452 C-21 95 -21 95 -22 94 C-22.04080783 92.00041636 -22.04254356 89.99954746 -22 88 C-17.25 86.875 -17.25 86.875 -15 88 C-15.00444122 87.05230743 -15.00888245 86.10461487 -15.01345825 85.12820435 C-15.05394611 76.21085896 -15.08395633 67.29353214 -15.10362434 58.3761158 C-15.11407566 53.79123234 -15.12825935 49.20642289 -15.15087891 44.62158203 C-15.17255936 40.19957626 -15.18455846 35.77764181 -15.18975449 31.35558701 C-15.19345889 29.66582999 -15.20069237 27.97607702 -15.21146011 26.28635025 C-15.22591143 23.92535111 -15.22798064 21.5646493 -15.22705078 19.20361328 C-15.23424133 18.50014771 -15.24143188 17.79668213 -15.24884033 17.07189941 C-15.22810432 12.22810432 -15.22810432 12.22810432 -13 10 C-9.9375 9.8125 -9.9375 9.8125 -7 10 C-5.32664004 11.67335996 -5.88037105 13.71387909 -5.87557983 15.94747925 C-5.87917511 16.6545401 -5.88277039 17.36160095 -5.88647461 18.09008789 C-5.88632858 18.83150528 -5.88618256 19.57292267 -5.8860321 20.33680725 C-5.88673135 22.79878621 -5.89452426 25.26069043 -5.90234375 27.72265625 C-5.90420789 29.42516539 -5.90563181 31.12767507 -5.90663147 32.83018494 C-5.91045698 37.31993073 -5.92028753 41.80964438 -5.93133545 46.29937744 C-5.94334332 51.68163641 -5.94795165 57.0639061 -5.95378876 62.44617462 C-5.96349928 70.63080546 -5.98265559 78.81536572 -6 87 C9.18 87 24.36 87 40 87 C37.2449342 83.98904164 37.2449342 83.98904164 34.3125 82.4375 C33.549375 81.963125 32.78625 81.48875 32 81 C32 80.34 32 79.68 32 79 C22.3898642 76.42585648 12.49081441 75.91967777 2.56640625 76.0390625 C-1 76 -1 76 -2 75 C-2.13974965 72.88550362 -2.20970618 70.76637368 -2.25292969 68.64770508 C-2.26764816 67.98420044 -2.28236664 67.3206958 -2.29753113 66.63708496 C-2.34461551 64.43130646 -2.38389011 62.22548424 -2.421875 60.01953125 C-2.43573494 59.26669043 -2.44959488 58.5138496 -2.46387482 57.73819542 C-2.537233 53.75026372 -2.60477212 49.76228283 -2.66748047 45.77416992 C-2.73323601 41.65923086 -2.81786224 37.54491302 -2.9070549 33.43042469 C-2.97232172 30.26405344 -3.02371841 27.09756393 -3.07138824 23.93088341 C-3.09658056 22.41460491 -3.12691657 20.89840259 -3.16255951 19.38233376 C-3.21123623 17.25459104 -3.24024403 15.12740875 -3.26464844 12.99926758 C-3.28605896 11.78982986 -3.30746948 10.58039215 -3.32952881 9.33430481 C-2.96266425 5.62222186 -1.85659979 3.20711286 0 0 Z M4 3 C4 25.11 4 47.22 4 70 C9.94 70.33 15.88 70.66 22 71 C31.00908548 73.53147856 38.27595679 76.37606662 45 83 C45.33 83.66 45.66 84.32 46 85 C46.99 84.67 47.98 84.34 49 84 C49 83.34 49 82.68 49 82 C49.56460938 81.73058594 50.12921875 81.46117188 50.7109375 81.18359375 C53.11753423 79.93922718 55.34358601 78.52275358 57.625 77.0625 C66.78908083 71.60134718 75.30325376 70.61831872 85.75390625 70.2109375 C88.85184352 70.36807851 88.85184352 70.36807851 90 69 C90.09413687 66.94443339 90.11742998 64.88559819 90.11352539 62.82788086 C90.11367142 62.18399918 90.11381744 61.54011749 90.1139679 60.87672424 C90.11326885 58.73939697 90.10547691 56.60215587 90.09765625 54.46484375 C90.09579204 52.98653715 90.09436815 51.50822993 90.09336853 50.02992249 C90.08954359 46.13201198 90.07971352 42.23413851 90.06866455 38.33624268 C90.05844992 34.36153667 90.0538708 30.38682471 90.04882812 26.41210938 C90.03809122 18.608056 90.02101509 10.80403318 90 3 C86.63913162 3.44245969 83.28042083 3.89964374 79.921875 4.359375 C78.97683105 4.4836084 78.03178711 4.6078418 77.05810547 4.73583984 C65.45545843 6.34142808 56.88630362 10.21326426 48 18 C45.06643373 16.6187244 42.51331387 15.00394678 39.875 13.125 C29.45955689 6.22056916 16.5326288 3 4 3 Z " fill="#115694" transform="translate(53,32)"/>
<path d="M0 0 C17.70816221 -0.78028622 31.58747706 2.03607172 46 13 C48.86934275 11.66055018 51.23262174 10.09567272 53.75 8.1875 C63.40095334 1.79020683 73.95120346 -0.43276292 85.375 -0.5 C86.20177246 -0.50628418 87.02854492 -0.51256836 87.88037109 -0.51904297 C90.2109375 -0.46875 90.2109375 -0.46875 94 0 C96.46813165 3.70219748 96.24247195 5.53178751 96.22705078 9.94995117 C96.22734283 10.65264633 96.22763489 11.35534149 96.22793579 12.07933044 C96.22654308 14.40066907 96.21098487 16.72168623 96.1953125 19.04296875 C96.19158216 20.65293706 96.18873528 22.26290764 96.18673706 23.87287903 C96.17910227 28.10946932 96.15945513 32.3459224 96.1373291 36.5824585 C96.11686735 40.90586491 96.10773464 45.2292935 96.09765625 49.55273438 C96.07620906 58.03521921 96.04207501 66.51759253 96 75 C93.55665109 76.22167445 92.10333637 76.06594166 89.375 76 C84.36090657 75.95999394 79.38038656 76.10619428 74.375 76.375 C73.6639209 76.4059375 72.9528418 76.436875 72.22021484 76.46875 C70.47412297 76.57058768 68.73469538 76.77630449 67 77 C66.67 77.66 66.34 78.32 66 79 C64.68 79 63.36 79 62 79 C61.731875 79.639375 61.46375 80.27875 61.1875 80.9375 C60 83 60 83 57 84 C56.67 83.34 56.34 82.68 56 82 C53.04590299 83.37154504 50.55991624 84.98863724 48 87 C48.28669082 83.61236761 48.65847536 82.31140782 51.21484375 79.98046875 C52.11332031 79.38878906 53.01179688 78.79710938 53.9375 78.1875 C54.83339844 77.58292969 55.72929688 76.97835937 56.65234375 76.35546875 C59 75 59 75 61 75 C61.33 74.34 61.66 73.68 62 73 C70.64916319 69.36282674 79.69555325 69.58152792 89 69 C89.33 47.22 89.66 25.44 90 3 C86.7 3.66 83.4 4.32 80 5 C78.80632812 5.21140625 77.61265625 5.4228125 76.3828125 5.640625 C65.5874533 7.65990082 56.06449121 11.38353608 48 19 C45.06643373 17.6187244 42.51331387 16.00394678 39.875 14.125 C29.80187356 7.44749199 19.5928959 5.87556074 7.8125 4.32543945 C6 4 6 4 4 3 C4 25.11 4 47.22 4 70 C3.67 70 3.34 70 3 70 C2.67 47.89 2.34 25.78 2 3 C1.01 3.495 1.01 3.495 0 4 C0 26.77 0 49.54 0 73 C1.98 73.66 3.96 74.32 6 75 C6 75.33 6 75.66 6 76 C3.66705225 76.04241723 1.33297433 76.04092937 -1 76 C-2.8487368 74.1512632 -2.20236003 71.1264572 -2.25292969 68.64770508 C-2.2750074 67.65244812 -2.2750074 67.65244812 -2.29753113 66.63708496 C-2.34461551 64.43130646 -2.38389011 62.22548424 -2.421875 60.01953125 C-2.43573494 59.26669043 -2.44959488 58.5138496 -2.46387482 57.73819542 C-2.537233 53.75026372 -2.60477212 49.76228283 -2.66748047 45.77416992 C-2.73323601 41.65923086 -2.81786224 37.54491302 -2.9070549 33.43042469 C-2.97232172 30.26405344 -3.02371841 27.09756393 -3.07138824 23.93088341 C-3.09658056 22.41460491 -3.12691657 20.89840259 -3.16255951 19.38233376 C-3.21123623 17.25459104 -3.24024403 15.12740875 -3.26464844 12.99926758 C-3.28605896 11.78982986 -3.30746948 10.58039215 -3.32952881 9.33430481 C-2.96266425 5.62222186 -1.85659979 3.20711286 0 0 Z " fill="#19548A" transform="translate(53,32)"/>
<path d="M0 0 C17.70816221 -0.78028622 31.58747706 2.03607172 46 13 C48.86934275 11.66055018 51.23262174 10.09567272 53.75 8.1875 C66.25305735 -0.10035723 79.4706687 -0.71067381 94 0 C94 0.66 94 1.32 94 2 C92.35 1.67 90.7 1.34 89 1 C88.67 1.99 88.34 2.98 88 4 C86.76765625 4.15855469 85.5353125 4.31710938 84.265625 4.48046875 C70.14600739 6.41795119 58.960873 9.39539664 48 19 C45.06643373 17.6187244 42.51331387 16.00394678 39.875 14.125 C29.80187356 7.44749199 19.5928959 5.87556074 7.8125 4.32543945 C6 4 6 4 4 3 C4 25.11 4 47.22 4 70 C3.67 70 3.34 70 3 70 C2.67 47.89 2.34 25.78 2 3 C1.01 3.495 1.01 3.495 0 4 C0 26.77 0 49.54 0 73 C1.98 73.66 3.96 74.32 6 75 C6 75.33 6 75.66 6 76 C3.66705225 76.04241723 1.33297433 76.04092937 -1 76 C-2.8487368 74.1512632 -2.20236003 71.1264572 -2.25292969 68.64770508 C-2.2750074 67.65244812 -2.2750074 67.65244812 -2.29753113 66.63708496 C-2.34461551 64.43130646 -2.38389011 62.22548424 -2.421875 60.01953125 C-2.43573494 59.26669043 -2.44959488 58.5138496 -2.46387482 57.73819542 C-2.537233 53.75026372 -2.60477212 49.76228283 -2.66748047 45.77416992 C-2.73323601 41.65923086 -2.81786224 37.54491302 -2.9070549 33.43042469 C-2.97232172 30.26405344 -3.02371841 27.09756393 -3.07138824 23.93088341 C-3.09658056 22.41460491 -3.12691657 20.89840259 -3.16255951 19.38233376 C-3.21123623 17.25459104 -3.24024403 15.12740875 -3.26464844 12.99926758 C-3.28605896 11.78982986 -3.30746948 10.58039215 -3.32952881 9.33430481 C-2.96266425 5.62222186 -1.85659979 3.20711286 0 0 Z " fill="#174D80" transform="translate(53,32)"/>
<path d="M0 0 C1.13680514 3.66850015 1.1781515 7.17449241 1.25292969 11 C1.26764816 11.69641602 1.28236664 12.39283203 1.29753113 13.11035156 C1.34431589 15.40683415 1.38376012 17.70335804 1.421875 20 C1.43573494 20.78568359 1.44959488 21.57136719 1.46387482 22.38085938 C1.53700982 26.53508496 1.60456796 30.68935747 1.66748047 34.84375 C1.7335103 39.13477338 1.81812565 43.42521909 1.9070549 47.71582031 C1.9721531 51.01679236 2.02363192 54.31787635 2.07138824 57.61914062 C2.09663109 59.20126238 2.12698848 60.78331113 2.16255951 62.36523438 C2.21099328 64.57687481 2.24016181 66.78798261 2.26464844 69 C2.28605896 70.258125 2.30746948 71.51625 2.32952881 72.8125 C1.97559294 76.23608714 1.41653491 77.59930252 -1 80 C-3.69530999 80.8039548 -6.16647402 80.81419502 -9 81 C-6.27498092 81.90833969 -4.37766029 82.18359985 -1.55078125 82.31640625 C-0.70322266 82.35830078 0.14433594 82.40019531 1.01757812 82.44335938 C1.89865234 82.48267578 2.77972656 82.52199219 3.6875 82.5625 C4.58017578 82.60568359 5.47285156 82.64886719 6.39257812 82.69335938 C8.59490108 82.79935353 10.79733473 82.90142051 13 83 C13 81.68 13 80.36 13 79 C12.34 79 11.68 79 11 79 C11.33 78.34 11.66 77.68 12 77 C12.99 77.33 13.98 77.66 15 78 C15.04254356 79.99954746 15.04080783 82.00041636 15 84 C14 85 14 85 11.79173279 85.12025452 C10.81688431 85.11803391 9.84203583 85.11581329 8.83764648 85.11352539 C7.73658066 85.11344986 6.63551483 85.11337433 5.50108337 85.11329651 C4.3031868 85.10813522 3.10529022 85.10297394 1.87109375 85.09765625 C0.65172623 85.0962413 -0.5676413 85.09482635 -1.82395935 85.09336853 C-5.7368307 85.08774967 -9.64964581 85.07519396 -13.5625 85.0625 C-16.20768147 85.05748743 -18.85286383 85.0529241 -21.49804688 85.04882812 C-27.99871726 85.03777411 -34.49935461 85.02101764 -41 85 C-41.33 86.32 -41.66 87.64 -42 89 C-42.66 89 -43.32 89 -44 89 C-44 89.66 -44 90.32 -44 91 C-44.66 91 -45.32 91 -46 91 C-46 90.01 -46 89.02 -46 88 C-44.515 87.505 -44.515 87.505 -43 87 C-42.67 85.68 -42.34 84.36 -42 83 C-36.72 83 -31.44 83 -26 83 C-26 82.01 -26 81.02 -26 80 C-33.26 79.67 -40.52 79.34 -48 79 C-48 77.68 -48 76.36 -48 75 C-47.34 75.33 -46.68 75.66 -46 76 C-46.495 76.99 -46.495 76.99 -47 78 C-46.20255371 77.83701416 -45.40510742 77.67402832 -44.58349609 77.50610352 C-40.2433099 76.89313131 -36.04018274 76.87558208 -31.6640625 76.90234375 C-30.78471039 76.9037587 -29.90535828 76.90517365 -28.99935913 76.90663147 C-26.20787058 76.91220123 -23.41646406 76.9247481 -20.625 76.9375 C-18.72526158 76.94251891 -16.8255219 76.94708113 -14.92578125 76.95117188 C-10.28382286 76.96216075 -5.64192531 76.97940443 -1 77 C-1.00222061 76.05008682 -1.00444122 75.10017365 -1.00672913 74.12147522 C-1.02696127 65.18908904 -1.04197249 56.25670748 -1.05181217 47.32430363 C-1.05704082 42.7315736 -1.06413812 38.138862 -1.07543945 33.54614258 C-1.086269 29.11766312 -1.09227698 24.68920144 -1.09487724 20.26070976 C-1.09673137 18.56734372 -1.10035175 16.87397871 -1.10573006 15.18062019 C-1.1129414 12.81708768 -1.1139909 10.45362955 -1.11352539 8.09008789 C-1.11712067 7.38302704 -1.12071594 6.67596619 -1.12442017 5.94747925 C-1.11405216 1.11405216 -1.11405216 1.11405216 0 0 Z " fill="#185586" transform="translate(154,42)"/>
<path d="M0 0 C0.99 0 1.98 0 3 0 C2.9157294 9.22285552 2.82089848 18.44552363 2.71247292 27.66812706 C2.66246419 31.95026771 2.61613478 36.23238314 2.578125 40.51464844 C2.5413297 44.64500217 2.4949859 48.77514718 2.44193649 52.90532303 C2.42336181 54.483388 2.40826528 56.06149777 2.39665604 57.63962936 C2.37984573 59.84509543 2.35082465 62.05008023 2.31884766 64.25537109 C2.30552399 65.51223724 2.29220032 66.76910339 2.2784729 68.0640564 C2 71 2 71 0 73 C0 74.32 0 75.64 0 77 C-1.32 77 -2.64 77 -4 77 C-4.02526605 69.32788798 -4.04283123 61.6557866 -4.05493164 53.98364258 C-4.05997377 51.37133381 -4.06680725 48.75902789 -4.07543945 46.14672852 C-4.08751036 42.40119732 -4.09322935 38.65570328 -4.09765625 34.91015625 C-4.10281754 33.73413345 -4.10797882 32.55811066 -4.11329651 31.34645081 C-4.11340981 29.72488319 -4.11340981 29.72488319 -4.11352539 28.07055664 C-4.115746 27.11347305 -4.11796661 26.15638947 -4.12025452 25.17030334 C-4 23 -4 23 -3 22 C-2.22114473 15.36530692 -1.84468243 8.67865541 -2 2 C-1.34 2 -0.68 2 0 2 C0 1.34 0 0.68 0 0 Z " fill="#0B5699" transform="translate(43,45)"/>
<path d="M0 0 C0.99 0.33 1.98 0.66 3 1 C3 1.99 3 2.98 3 4 C1.68 4 0.36 4 -1 4 C-1 5.32 -1 6.64 -1 8 C6.59 8 14.18 8 22 8 C21.67 9.32 21.34 10.64 21 12 C15.72 12 10.44 12 5 12 C4.67 13.65 4.34 15.3 4 17 C3.01 17 2.02 17 1 17 C0.67 18.32 0.34 19.64 0 21 C-4.29 20.67 -8.58 20.34 -13 20 C-13 19.01 -13 18.02 -13 17 C-13.99 17 -14.98 17 -16 17 C-15.979375 16.21625 -15.95875 15.4325 -15.9375 14.625 C-15.81315937 12.01885039 -15.81315937 12.01885039 -17 10 C-16.34 10 -15.68 10 -15 10 C-15 9.34 -15 8.68 -15 8 C-11.67501607 4.92131118 -8.48369538 4 -4 4 C-2.62689293 2.70766393 -1.28965176 1.37562854 0 0 Z " fill="#0B579A" transform="translate(107,113)"/>
<path d="M0 0 C0.66 0 1.32 0 2 0 C2.33 2.31 2.66 4.62 3 7 C5.17450693 7.06936921 5.17450693 7.06936921 7.9375 6.375 C11 6 11 6 14 8 C14.55558594 7.67515625 15.11117187 7.3503125 15.68359375 7.015625 C18.32392548 5.85797534 20.19138151 5.73267802 23.0625 5.75 C23.91972656 5.74484375 24.77695313 5.7396875 25.66015625 5.734375 C28 6 28 6 31 8 C31.29296875 10.1640625 31.29296875 10.1640625 31.1875 12.625 C31.14689453 13.85089844 31.14689453 13.85089844 31.10546875 15.1015625 C31.07066406 15.72804687 31.03585938 16.35453125 31 17 C30.01 17 29.02 17 28 17 C26.768606 14.53721199 26.92840804 12.7204945 27 10 C26.34 10.33 25.68 10.66 25 11 C24.59270772 13.32156597 24.25561323 15.6568787 24 18 C23.01 17.67 22.02 17.34 21 17 C21 14.36 21 11.72 21 9 C20.34 9 19.68 9 19 9 C18.67 11.64 18.34 14.28 18 17 C17.01 17 16.02 17 15 17 C14.67 15.02 14.34 13.04 14 11 C12.824375 11.5259375 12.824375 11.5259375 11.625 12.0625 C10.75875 12.371875 9.8925 12.68125 9 13 C8.34 12.67 7.68 12.34 7 12 C9.1385485 14.1385485 10.13275314 14.42655063 13 15 C12.67 15.99 12.34 16.98 12 18 C5.125 17.125 5.125 17.125 4 16 C3.95919217 14.00041636 3.95745644 11.99954746 4 10 C3.34 10 2.68 10 2 10 C2.33 12.31 2.66 14.62 3 17 C-3.625 18.125 -3.625 18.125 -7 17 C-8.39935013 14.20129973 -8.25265405 12.09501208 -8 9 C-6.44318272 6.74261495 -5.42368447 6.13315798 -2.8125 5.3125 C-2.214375 5.209375 -1.61625 5.10625 -1 5 C-0.67 3.35 -0.34 1.7 0 0 Z M-5 9 C-5 10.98 -5 12.96 -5 15 C-3.02463255 14.65213292 -3.02463255 14.65213292 -1 14 C-0.67 13.34 -0.34 12.68 0 12 C-0.33 11.01 -0.66 10.02 -1 9 C-2.32 9 -3.64 9 -5 9 Z M7 9 C11 10 11 10 11 10 Z " fill="#749BB6" transform="translate(79,145)"/>
<path d="M0 0 C4.21749219 -0.07419134 8.43463811 -0.1286204 12.65258789 -0.16479492 C14.08722552 -0.17987589 15.52181708 -0.2003438 16.95629883 -0.22631836 C19.01915859 -0.26273437 21.08140858 -0.27973243 23.14453125 -0.29296875 C25.00621948 -0.31653442 25.00621948 -0.31653442 26.90551758 -0.34057617 C30 0 30 0 31.9284668 1.33081055 C33 3 33 3 33 6 C18.48 6 3.96 6 -11 6 C-10.01 5.34 -9.02 4.68 -8 4 C-8 3.34 -8 2.68 -8 2 C-5.36 1.67 -2.72 1.34 0 1 C0 0.67 0 0.34 0 0 Z " fill="#0A558E" transform="translate(54,119)"/>
<path d="M0 0 C6.93 0 13.86 0 21 0 C21 0.99 21 1.98 21 3 C19.68 3 18.36 3 17 3 C17 6.96 17 10.92 17 15 C16.01 15.33 15.02 15.66 14 16 C13.67 12.04 13.34 8.08 13 4 C10.834375 4.0309375 10.834375 4.0309375 8.625 4.0625 C4.25 4.125 4.25 4.125 2 3 C1.67 5.97 1.34 8.94 1 12 C3.97 12 6.94 12 10 12 C9.67 12.99 9.34 13.98 9 15 C5.8125 15.8125 5.8125 15.8125 2 16 C-1 14.125 -1 14.125 -3 11 C-3.10888274 7.89424952 -2.66626866 5.02789419 -2 2 C-1.34 2 -0.68 2 0 2 C0 1.34 0 0.68 0 0 Z " fill="#7FA2B5" transform="translate(12,147)"/>
<path d="M0 0 C0.99 0.33 1.98 0.66 3 1 C4.1875 3.5625 4.1875 3.5625 5 6 C5.66 4.35 6.32 2.7 7 1 C8.62414378 0.80522261 10.24936423 0.61940542 11.875 0.4375 C12.77992188 0.33308594 13.68484375 0.22867188 14.6171875 0.12109375 C17 0 17 0 19 1 C19 1.99 19 2.98 19 4 C18.01 4 17.02 4 16 4 C16.99 4.33 17.98 4.66 19 5 C18.67 7.31 18.34 9.62 18 12 C15.69 11.67 13.38 11.34 11 11 C11 10.01 11 9.02 11 8 C12.65 8.33 14.3 8.66 16 9 C16 8.34 16 7.68 16 7 C12.71303767 6.20046862 11.28976808 5.90341064 8 7 C7.29373761 8.98636298 6.63106429 10.98848259 6 13 C4.375 15.375 4.375 15.375 3 17 C1.68 16.67 0.36 16.34 -1 16 C0.32 14.35 1.64 12.7 3 11 C2.69964844 10.45730469 2.39929688 9.91460937 2.08984375 9.35546875 C1.70957031 8.64003906 1.32929688 7.92460937 0.9375 7.1875 C0.55464844 6.47980469 0.17179688 5.77210938 -0.22265625 5.04296875 C-1 3 -1 3 0 0 Z " fill="#7E9FB6" transform="translate(142,151)"/>
<path d="M0 0 C0.66 0.33 1.32 0.66 2 1 C2 24.76 2 48.52 2 73 C-0.95664519 74.4783226 -3.74229737 74.06032783 -7 74 C-5.02 73.505 -5.02 73.505 -3 73 C-3 72.34 -3 71.68 -3 71 C-2.01 71 -1.02 71 0 71 C0 47.57 0 24.14 0 0 Z " fill="#174E82" transform="translate(147,34)"/>
<path d="M0 0 C0 0.99 0 1.98 0 3 C-2.31 3 -4.62 3 -7 3 C-6.67 4.65 -6.34 6.3 -6 8 C-1.17557816 6.73053486 -1.17557816 6.73053486 2 3 C2 1.68 2 0.36 2 -1 C3.98 -1 5.96 -1 8 -1 C10.32590854 2.63423209 10.16265833 5.77088331 10 10 C7.20824839 11.00503058 5.62700067 10.94474084 2.625 10.5 C-0.92890573 10.00980611 -3.52236406 10.2366165 -7 11 C-8.97538528 8.77769156 -9.93956032 7.41300448 -10.375 4.4375 C-10 2 -10 2 -8.9375 0.125 C-5.88430685 -1.64782183 -3.33588292 -0.69235306 0 0 Z M3 2 C7 3 7 3 7 3 Z M4 6 C4 6.66 4 7.32 4 8 C4.99 7.67 5.98 7.34 7 7 C6.01 6.67 5.02 6.34 4 6 Z " fill="#759DB6" transform="translate(60,152)"/>
<path d="M0 0 C2.33294775 -0.04241723 4.66702567 -0.04092937 7 0 C8 1 8 1 8.12025452 3.89161682 C8.1169236 5.83354164 8.1169236 5.83354164 8.11352539 7.81469727 C8.11367142 8.52685394 8.11381744 9.23901062 8.1139679 9.9727478 C8.1132687 12.33733112 8.10547606 14.70183661 8.09765625 17.06640625 C8.09579209 18.70165463 8.09436818 20.33690357 8.09336853 21.97215271 C8.08954318 26.28434785 8.07971275 30.59650952 8.06866455 34.90869141 C8.0584508 39.30565946 8.05387099 43.70263289 8.04882812 48.09960938 C8.03809049 56.73308831 8.02101387 65.36654 8 74 C7.67 74 7.34 74 7 74 C7 50.57 7 27.14 7 3 C6.01 3 5.02 3 4 3 C4 3.66 4 4.32 4 5 C3.34 5 2.68 5 2 5 C2.08378906 5.68964844 2.16757812 6.37929688 2.25390625 7.08984375 C2.92518812 13.28433085 3.09108074 18.8502722 2 25 C1.34 25.33 0.68 25.66 0 26 C-0.19625099 22.04204914 -0.38051982 18.08363065 -0.5625 14.125 C-0.61857422 12.99707031 -0.67464844 11.86914062 -0.73242188 10.70703125 C-0.80493164 9.09248047 -0.80493164 9.09248047 -0.87890625 7.4453125 C-0.9260376 6.45031738 -0.97316895 5.45532227 -1.02172852 4.43017578 C-1 2 -1 2 0 0 Z " fill="#164D7E" transform="translate(39,42)"/>
<path d="M0 0 C2.475 0.495 2.475 0.495 5 1 C5.04631905 9.29273717 5.08186694 17.58542038 5.10362434 25.87825489 C5.11406625 29.72886025 5.12823279 33.57937718 5.15087891 37.42993164 C5.17259291 41.14520323 5.18456556 44.86038969 5.18975449 48.57571983 C5.19345285 49.99391711 5.20067475 51.41210968 5.21146011 52.83027077 C5.22595502 54.81494233 5.22681675 56.79969935 5.22705078 58.78442383 C5.231492 59.91471512 5.23593323 61.04500641 5.24050903 62.20954895 C5 65 5 65 3 68 C2.99191315 67.20708557 2.98382629 66.41417114 2.97549438 65.597229 C2.89753394 58.12252853 2.81023901 50.64802285 2.71247292 43.17355728 C2.66253995 39.33091081 2.61620977 35.48829143 2.578125 31.64550781 C2.5412341 27.93658312 2.49486404 24.22788671 2.44193649 20.51915741 C2.42341271 19.10463213 2.40829728 17.69005795 2.39665604 16.27545929 C2.37975987 14.29324238 2.34959077 12.31115208 2.31884766 10.32910156 C2.29886215 8.63699554 2.29886215 8.63699554 2.2784729 6.91070557 C2.00770263 4.08051088 1.46774456 2.4027776 0 0 Z " fill="#0A569A" transform="translate(142,33)"/>
<path d="M0 0 C2.26921536 -0.13489391 4.5407067 -0.23193995 6.8125 -0.3125 C8.70935547 -0.39951172 8.70935547 -0.39951172 10.64453125 -0.48828125 C14 0 14 0 16 2.28125 C17.38776054 6.05422397 16.37146603 8.31869645 15 12 C14.34 12 13.68 12 13 12 C12.8046875 9.94921875 12.609375 7.8984375 12.4140625 5.84765625 C12.27742187 5.23792969 12.14078125 4.62820312 12 4 C11.34 3.67 10.68 3.34 10 3 C10 5.64 10 8.28 10 11 C8.68 11 7.36 11 6 11 C5.67 8.69 5.34 6.38 5 4 C4.34 4 3.68 4 3 4 C3.20625 4.5775 3.4125 5.155 3.625 5.75 C4.08661261 8.51967567 3.42944945 9.64561267 2 12 C1.34 12 0.68 12 0 12 C-1.1671568 8.49852959 -1.13357453 5.67329964 -1 2 C-0.67 1.34 -0.34 0.68 0 0 Z " fill="#81A4BC" transform="translate(180,151)"/>
<path d="M0 0 C17.20429028 -0.27999749 17.20429028 -0.27999749 25 4 C26.4375 6.6875 26.4375 6.6875 27 9 C26.01 9.495 26.01 9.495 25 10 C23.36328125 9.29296875 23.36328125 9.29296875 21.3125 8.1875 C15.77794572 5.56491709 10.17026442 5.03825655 4.16015625 4.39453125 C1 4 1 4 -1 3 C-0.67 2.01 -0.34 1.02 0 0 Z " fill="#185488" transform="translate(64,70)"/>
<path d="M0 0 C0 1.32 0 2.64 0 4 C-1.66675781 4.27263672 -1.66675781 4.27263672 -3.3671875 4.55078125 C-11.41635947 5.89969835 -19.26353483 7.31979954 -27 10 C-26.67 8.68 -26.34 7.36 -26 6 C-25.34 6 -24.68 6 -24 6 C-24 5.34 -24 4.68 -24 4 C-15.89901933 1.40833818 -8.57119405 -0.17492233 0 0 Z " fill="#134F87" transform="translate(136,50)"/>
<path d="M0 0 C0.34546875 0.50789063 0.6909375 1.01578125 1.046875 1.5390625 C-1.46829113 4.05422863 -2.47060686 3.81331946 -5.953125 3.9765625 C-10.81073876 4.32717767 -15.05513921 5.27886658 -19.6640625 6.8203125 C-22.07453108 7.57718318 -24.46985175 8.08277201 -26.953125 8.5390625 C-25.18819734 4.69774936 -23.3994187 2.67043925 -19.390625 1.17578125 C-3.85387323 -2.88269718 -3.85387323 -2.88269718 0 0 Z " fill="#154D7D" transform="translate(135.953125,70.4609375)"/>
<path d="M0 0 C1.32 1.32 2.64 2.64 4 4 C3.67 4.66 3.34 5.32 3 6 C1.125 6.5625 1.125 6.5625 -1 7 C-1.99 7.33 -2.98 7.66 -4 8 C-4 8.66 -4 9.32 -4 10 C-4.33 10.33 -4.66 10.66 -5 11 C-4.67 11.99 -4.34 12.98 -4 14 C-4.33 14.99 -4.66 15.98 -5 17 C-4.01 17 -3.02 17 -2 17 C-2 17.99 -2 18.98 -2 20 C1.96 20 5.92 20 10 20 C7.6058839 22.3941161 6.96213689 22.29598923 3.6875 22.3125 C-0.32609855 22.21570904 -2.85618124 21.66748258 -6 19 C-7.375 17 -7.375 17 -8 15 C-7.67 14.01 -7.34 13.02 -7 12 C-7.99 11.67 -8.98 11.34 -10 11 C-10 10.01 -10 9.02 -10 8 C-10.66 7.34 -11.32 6.68 -12 6 C-9.03 6 -6.06 6 -3 6 C-3.99 5.01 -4.98 4.02 -6 3 C-5.01 3 -4.02 3 -3 3 C-1.31201173 1.56249809 -1.31201173 1.56249809 0 0 Z " fill="#135084" transform="translate(96,113)"/>
<path d="M0 0 C9.73511948 -0.56164151 18.83807096 1.62054677 27 7 C27 7.66 27 8.32 27 9 C25.375 9.6875 25.375 9.6875 23 10 C22.1440625 9.54625 21.288125 9.0925 20.40625 8.625 C16.32970465 6.68022607 12.5559379 5.99967088 8.125 5.3125 C7.34125 5.18294922 6.5575 5.05339844 5.75 4.91992188 C3.83474158 4.60460494 1.91754727 4.30108482 0 4 C0 2.68 0 1.36 0 0 Z " fill="#175184" transform="translate(64,50)"/>
<path d="M0 0 C2.1640625 0.0234375 2.1640625 0.0234375 4.625 0.375 C5.85089844 0.54128906 5.85089844 0.54128906 7.1015625 0.7109375 C7.72804687 0.80632812 8.35453125 0.90171875 9 1 C8.67 1.99 8.34 2.98 8 4 C6.35 4.33 4.7 4.66 3 5 C3.99 5.556875 4.98 6.11375 6 6.6875 C9 9 9 9 9.375 11.75 C9.25125 12.4925 9.1275 13.235 9 14 C6.24075815 15.80411967 5.11027897 16.0127245 1.75 15.625 C0.38875 15.315625 0.38875 15.315625 -1 15 C-1.33 14.01 -1.66 13.02 -2 12 C0.31 12 2.62 12 5 12 C4.67 11.34 4.34 10.68 4 10 C2.7625 9.62875 2.7625 9.62875 1.5 9.25 C0.675 8.8375 -0.15 8.425 -1 8 C-1.9375 5 -1.9375 5 -2 2 C-1.34 1.34 -0.68 0.68 0 0 Z " fill="#789DB6" transform="translate(133,147)"/>
<path d="M0 0 C0.99 0 1.98 0 3 0 C4.98 4.95 6.96 9.9 9 15 C8.01 15.495 8.01 15.495 7 16 C5 15 5 15 4 12 C1.62625139 11.66574265 1.62625139 11.66574265 -1 12 C-2.70532323 13.94009522 -2.70532323 13.94009522 -4 16 C-4.66 16 -5.32 16 -6 16 C-5.52412884 9.97229862 -2.80277043 5.23321711 0 0 Z M1 5 C0.67 5.99 0.34 6.98 0 8 C0.66 8 1.32 8 2 8 C1.67 7.01 1.34 6.02 1 5 Z " fill="#7E9EB5" transform="translate(42,147)"/>
<path d="M0 0 C9.08723825 -0.52426375 18.91977089 0.90313604 26 7 C26 7.66 26 8.32 26 9 C22.13057179 8.4771043 18.49009035 7.587544 14.75 6.5 C9.5131009 5.02734662 4.41972192 4.34093695 -1 4 C-0.67 2.68 -0.34 1.36 0 0 Z " fill="#235883" transform="translate(64,78)"/>
<path d="M0 0 C-0.33 0.99 -0.66 1.98 -1 3 C-2.37671875 3.16435547 -2.37671875 3.16435547 -3.78125 3.33203125 C-10.65540671 4.22018385 -16.59774708 5.39167474 -23 8 C-24.32 8 -25.64 8 -27 8 C-26.4375 6.1875 -26.4375 6.1875 -25 4 C-18.21739683 0.47304635 -7.373992 -3.686996 0 0 Z " fill="#1A5182" transform="translate(137,79)"/>
<path d="M0 0 C3.62871602 1.26770301 5.12501713 2.03713507 7.30078125 5.30078125 C4.11391343 6.35598859 2.50863486 6.25381065 -0.57421875 4.98828125 C-6.76450914 2.7278402 -13.18689639 2.08818865 -19.69921875 1.30078125 C-19.69921875 0.31078125 -19.69921875 -0.67921875 -19.69921875 -1.69921875 C-14.71544371 -4.19110627 -5.29437974 -1.37148187 0 0 Z " fill="#19517C" transform="translate(82.69921875,62.69921875)"/>
<path d="M0 0 C0 0.66 0 1.32 0 2 C-2.41625321 2.33659249 -4.83292808 2.66938388 -7.25 3 C-7.93191406 3.09539062 -8.61382812 3.19078125 -9.31640625 3.2890625 C-12.59371988 3.7345226 -15.68384153 4 -19 4 C-19.33 4.66 -19.66 5.32 -20 6 C-23.0625 6.625 -23.0625 6.625 -26 7 C-26 6.01 -26 5.02 -26 4 C-19.26072702 -0.1260855 -7.10393622 -4.73595748 0 0 Z " fill="#185385" transform="translate(137,62)"/>
<path d="M0 0 C2.31 0.33 4.62 0.66 7 1 C7.625 2.875 7.625 2.875 8 5 C7.34 5.66 6.68 6.32 6 7 C4.68 7 3.36 7 2 7 C1.67 7.66 1.34 8.32 1 9 C2.98 8.67 4.96 8.34 7 8 C6.67 9.32 6.34 10.64 6 12 C3.69 11.67 1.38 11.34 -1 11 C-2.1875 8.3125 -2.1875 8.3125 -3 5 C-1.625 2.125 -1.625 2.125 0 0 Z " fill="#779BBA" transform="translate(171,151)"/>
<path d="M0 0 C0.33 0 0.66 0 1 0 C1.33 23.1 1.66 46.2 2 70 C3.98 70.66 5.96 71.32 8 72 C8 72.33 8 72.66 8 73 C5.66705225 73.04241723 3.33297433 73.04092937 1 73 C-0.85452103 71.14547897 -0.18325052 68.08276569 -0.22119141 65.60009766 C-0.2326973 64.93177414 -0.24420319 64.26345062 -0.25605774 63.57487488 C-0.29288635 61.35465157 -0.32244905 59.13439945 -0.3515625 56.9140625 C-0.37466849 55.37567732 -0.39805873 53.83729638 -0.42172241 52.29891968 C-0.4702491 49.06910843 -0.51516654 45.83927165 -0.55761719 42.609375 C-0.6123632 38.46746848 -0.67620593 34.32576159 -0.74279213 30.18403053 C-0.79286318 27.00482081 -0.83799095 23.82555557 -0.88163376 20.64625168 C-0.90321429 19.11919258 -0.92636388 17.59215484 -0.9510994 16.06514359 C-0.98496901 13.92969242 -1.01216377 11.79425745 -1.03759766 9.65869141 C-1.05456696 8.44259186 -1.07153625 7.22649231 -1.08901978 5.97354126 C-1 3 -1 3 0 0 Z " fill="#24537E" transform="translate(51,35)"/>
<path d="M0 0 C-0.33 0.99 -0.66 1.98 -1 3 C-2.65 3 -4.3 3 -6 3 C-6 4.65 -6 6.3 -6 8 C-4.35 7.67 -2.7 7.34 -1 7 C-0.67 7.99 -0.34 8.98 0 10 C-6.37426409 11.32296047 -6.37426409 11.32296047 -8.9375 10 C-10.57873868 6.91060954 -10.3734761 4.42353094 -10 1 C-6.1496895 -1.56687367 -4.41430237 -0.83288724 0 0 Z " fill="#81A8BD" transform="translate(126,152)"/>
<path d="M0 0 C7.44455023 0.48551415 14.01649676 3.37167571 19.625 8.3125 C20.305625 9.1478125 20.305625 9.1478125 21 10 C16.50031028 9.57815409 13.5300092 7.60763262 9.8671875 5.15625 C7.89916091 3.83827223 7.89916091 3.83827223 5 3 C5 3.99 5 4.98 5 6 C-1.93 5.505 -1.93 5.505 -9 5 C-9 4.67 -9 4.34 -9 4 C-5.7 3.67 -2.4 3.34 1 3 C0.67 2.01 0.34 1.02 0 0 Z " fill="#1D5685" transform="translate(75,103)"/>
<path d="M0 0 C0.99 0.33 1.98 0.66 3 1 C3.33 2.65 3.66 4.3 4 6 C3.34 6 2.68 6 2 6 C3.30155006 10.07964281 3.30155006 10.07964281 5 14 C3.35 14.33 1.7 14.66 0 15 C-2.08133467 11.877998 -2.2737822 11.06733011 -2.25 7.5 C-2.25773438 6.33984375 -2.25773438 6.33984375 -2.265625 5.15625 C-2 3 -2 3 0 0 Z " fill="#81A9C1" transform="translate(164,148)"/>
<path d="M0 0 C-1.08203125 1.984375 -1.08203125 1.984375 -3 4 C-6.13671875 4.390625 -6.13671875 4.390625 -9.6875 4.25 C-11.45673828 4.19585937 -11.45673828 4.19585937 -13.26171875 4.140625 C-14.61716797 4.07101563 -14.61716797 4.07101563 -16 4 C-16.33 2.68 -16.66 1.36 -17 0 C-11.23073111 -1.40333568 -5.81856895 -0.67296616 0 0 Z " fill="#0D5192" transform="translate(75,102)"/>
<path d="M0 0 C2.625 0.375 2.625 0.375 4.5625 2.4375 C5.98059219 6.35810782 5.0511977 8.54678513 3.625 12.375 C2.965 12.375 2.305 12.375 1.625 12.375 C1.4296875 10.32421875 1.234375 8.2734375 1.0390625 6.22265625 C0.90242187 5.61292969 0.76578125 5.00320312 0.625 4.375 C-0.035 4.045 -0.695 3.715 -1.375 3.375 C-1.705 4.365 -2.035 5.355 -2.375 6.375 C-2.705 6.375 -3.035 6.375 -3.375 6.375 C-3.417721 4.70888095 -3.41563832 3.04117115 -3.375 1.375 C-2.375 0.375 -2.375 0.375 0 0 Z " fill="#7C96AA" transform="translate(191.375,150.625)"/>
<path d="M0 0 C0.99 0 1.98 0 3 0 C3.99 2.97 4.98 5.94 6 9 C3.69 9.33 1.38 9.66 -1 10 C-2.25 3.375 -2.25 3.375 0 0 Z M1 5 C0.67 5.99 0.34 6.98 0 8 C0.66 8 1.32 8 2 8 C1.67 7.01 1.34 6.02 1 5 Z " fill="#729EBB" transform="translate(42,147)"/>
<path d="M0 0 C1.09731445 0.16338867 1.09731445 0.16338867 2.21679688 0.33007812 C4.00142139 0.59835501 5.78243589 0.89046649 7.5625 1.1875 C7.5625 1.5175 7.5625 1.8475 7.5625 2.1875 C0.3025 2.8475 -6.9575 3.5075 -14.4375 4.1875 C-14.7675 3.5275 -15.0975 2.8675 -15.4375 2.1875 C-9.80483146 -0.75096177 -6.19969719 -1.06069842 0 0 Z " fill="#0F508A" transform="translate(128.4375,105.8125)"/>
<path d="M0 0 C2 2 2 2 2 5 C3.99983534 4.20882096 3.99983534 4.20882096 6 3 C6.33 2.01 6.66 1.02 7 0 C7.66 0 8.32 0 9 0 C9.33 2.31 9.66 4.62 10 7 C3.375 8.125 3.375 8.125 0 7 C-1.125 2.25 -1.125 2.25 0 0 Z " fill="#7BA4BC" transform="translate(72,155)"/>
<path d="M0 0 C1.98 0.99 1.98 0.99 4 2 C4 2.66 4 3.32 4 4 C6.97 4 9.94 4 13 4 C12.67 4.99 12.34 5.98 12 7 C8.8125 7.8125 8.8125 7.8125 5 8 C2.0625 5.75 2.0625 5.75 0 3 C0 2.01 0 1.02 0 0 Z " fill="#8AA6B9" transform="translate(9,155)"/>
<path d="M0 0 C8.57142857 -0.28571429 8.57142857 -0.28571429 12 2 C8.68629 4.20914 7.6553979 4.22481553 3.8125 4.125 C2.91144531 4.10695313 2.01039062 4.08890625 1.08203125 4.0703125 C0.39496094 4.04710938 -0.29210938 4.02390625 -1 4 C-0.67 2.68 -0.34 1.36 0 0 Z " fill="#185584" transform="translate(64,78)"/>
<path d="M0 0 C-0.33 0.66 -0.66 1.32 -1 2 C-3.30710878 2.59896093 -5.61688718 2.95654965 -7.96875 3.33984375 C-8.97421875 3.66662109 -8.97421875 3.66662109 -10 4 C-10.33 4.99 -10.66 5.98 -11 7 C-12.32 6.67 -13.64 6.34 -15 6 C-9.52533382 0.38126366 -7.60105179 -0.12259761 0 0 Z " fill="#125187" transform="translate(124,72)"/>
<path d="M0 0 C5.28 0 10.56 0 16 0 C16 0.33 16 0.66 16 1 C14.7934375 1.185625 14.7934375 1.185625 13.5625 1.375 C12.716875 1.58125 11.87125 1.7875 11 2 C10.67 2.66 10.34 3.32 10 4 C7.36 4 4.72 4 2 4 C2 3.34 2 2.68 2 2 C1.34 1.34 0.68 0.68 0 0 Z " fill="#12528A" transform="translate(126,102)"/>
<path d="M0 0 C1.32 0 2.64 0 4 0 C5.62950412 4.12168689 6.26264601 6.70700357 5 11 C4.01 10.67 3.02 10.34 2 10 C1.855625 8.906875 1.71125 7.81375 1.5625 6.6875 C1.11711896 3.06877013 1.11711896 3.06877013 0 0 Z " fill="#73A3BE" transform="translate(184,152)"/>
<path d="M0 0 C2.31 0 4.62 0 7 0 C6.67 0.66 6.34 1.32 6 2 C4.68 2 3.36 2 2 2 C1.67 8.6 1.34 15.2 1 22 C0.67 22 0.34 22 0 22 C-0.1964031 18.70880065 -0.38060745 15.41703066 -0.5625 12.125 C-0.61857422 11.18785156 -0.67464844 10.25070313 -0.73242188 9.28515625 C-0.78076172 8.38925781 -0.82910156 7.49335937 -0.87890625 6.5703125 C-0.9260376 5.74289551 -0.97316895 4.91547852 -1.02172852 4.06298828 C-1 2 -1 2 0 0 Z " fill="#1A507D" transform="translate(39,42)"/>
<path d="M0 0 C0.66 0 1.32 0 2 0 C2 4.95 2 9.9 2 15 C1.01 15.495 1.01 15.495 0 16 C-1.08489672 12.74530985 -1.13323992 10.29456791 -1.125 6.875 C-1.12757812 5.79992187 -1.13015625 4.72484375 -1.1328125 3.6171875 C-1 1 -1 1 0 0 Z " fill="#7790A5" transform="translate(5,147)"/>
<path d="M0 0 C2.33944736 0.28730055 4.6739143 0.61936779 7 1 C7 1.99 7 2.98 7 4 C4.69 4 2.38 4 0 4 C-0.33 4.66 -0.66 5.32 -1 6 C-1.66 5.67 -2.32 5.34 -3 5 C-1.125 1.125 -1.125 1.125 0 0 Z " fill="#7D97AD" transform="translate(53,151)"/>
<path d="M0 0 C2.10388569 -0.05402274 4.20816714 -0.09280256 6.3125 -0.125 C8.07013672 -0.15980469 8.07013672 -0.15980469 9.86328125 -0.1953125 C13 0 13 0 16 2 C11.34277373 3.35209795 6.69619661 3.06102674 2 2 C1.34 1.34 0.68 0.68 0 0 Z " fill="#0F579C" transform="translate(58,33)"/>
<path d="M0 0 C0.99 0 1.98 0 3 0 C3 3.3 3 6.6 3 10 C2.01 10.33 1.02 10.66 0 11 C-0.19406478 9.35492782 -0.38007935 7.70890406 -0.5625 6.0625 C-0.66691406 5.14597656 -0.77132812 4.22945312 -0.87890625 3.28515625 C-0.91886719 2.53105469 -0.95882812 1.77695313 -1 1 C-0.67 0.67 -0.34 0.34 0 0 Z " fill="#88A5BC" transform="translate(112,152)"/>
<path d="M0 0 C0.99 0 1.98 0 3 0 C3 0.66 3 1.32 3 2 C3.66 2 4.32 2 5 2 C5.33 1.34 5.66 0.68 6 0 C6.99 0.66 7.98 1.32 9 2 C7.75336669 2.50833591 6.50250613 3.00631145 5.25 3.5 C4.55390625 3.7784375 3.8578125 4.056875 3.140625 4.34375 C1 5 1 5 -3 5 C-1.125 1.125 -1.125 1.125 0 0 Z " fill="#1B4D77" transform="translate(113,82)"/>
<path d="M0 0 C0.886875 0.391875 1.77375 0.78375 2.6875 1.1875 C2.048125 1.31125 1.40875 1.435 0.75 1.5625 C0.069375 1.76875 -0.61125 1.975 -1.3125 2.1875 C-1.6425 2.8475 -1.9725 3.5075 -2.3125 4.1875 C-5.375 4.8125 -5.375 4.8125 -8.3125 5.1875 C-8.3125 4.1975 -8.3125 3.2075 -8.3125 2.1875 C-5.19329267 -0.47300037 -4.048182 -0.9929503 0 0 Z " fill="#12416C" transform="translate(119.3125,63.8125)"/>
<path d="M0 0 C0.33 0 0.66 0 1 0 C1 3.96 1 7.92 1 12 C-0.65 12 -2.3 12 -4 12 C-3.67 10.68 -3.34 9.36 -3 8 C-2.34 8 -1.68 8 -1 8 C-0.67 5.36 -0.34 2.72 0 0 Z " fill="#14578A" transform="translate(39,112)"/>
<path d="M0 0 C2.31 0 4.62 0 7 0 C7.33 0.99 7.66 1.98 8 3 C1.25 4.125 1.25 4.125 -1 3 C-0.67 2.01 -0.34 1.02 0 0 Z " fill="#7A9FB8" transform="translate(118,159)"/>
<path d="M0 0 C0.66 0.66 1.32 1.32 2 2 C1.6875 3.875 1.6875 3.875 1 6 C0.7215625 7.11375 0.7215625 7.11375 0.4375 8.25 C0.293125 8.8275 0.14875 9.405 0 10 C-2 9 -2 9 -2.6875 7.125 C-3 5 -3 5 -2 2 C-1.34 2 -0.68 2 0 2 C0 1.34 0 0.68 0 0 Z " fill="#7799B5" transform="translate(12,147)"/>
<path d="M0 0 C7.5273523 2.15317287 7.5273523 2.15317287 9.5 5.6875 C9.665 6.450625 9.83 7.21375 10 8 C9.01 8.495 9.01 8.495 8 9 C6.68 8.01 5.36 7.02 4 6 C4.33 5.67 4.66 5.34 5 5 C3.7625 4.319375 3.7625 4.319375 2.5 3.625 C1.675 3.08875 0.85 2.5525 0 2 C0 1.34 0 0.68 0 0 Z " fill="#154168" transform="translate(81,71)"/>
<path d="M0 0 C1.98 0 3.96 0 6 0 C6.33 1.32 6.66 2.64 7 4 C4.69 4 2.38 4 0 4 C0 2.68 0 1.36 0 0 Z " fill="#799CB4" transform="translate(62,151)"/>
<path d="M0 0 C-0.33 1.32 -0.66 2.64 -1 4 C-3.3431213 3.74438677 -5.67843403 3.40729228 -8 3 C-8.33 2.34 -8.66 1.68 -9 1 C-6.04335481 -0.4783226 -3.25770263 -0.06032783 0 0 Z " fill="#819EB3" transform="translate(178,159)"/>
<path d="M0 0 C3.63 0 7.26 0 11 0 C11.33 0.66 11.66 1.32 12 2 C3.42857143 3.28571429 3.42857143 3.28571429 0 2 C0 1.34 0 0.68 0 0 Z " fill="#14598D" transform="translate(64,62)"/>
<path d="M0 0 C0.66 1.32 1.32 2.64 2 4 C0.02 4.99 0.02 4.99 -2 6 C-2.99 4.68 -3.98 3.36 -5 2 C-3.35 1.34 -1.7 0.68 0 0 Z " fill="#134F7F" transform="translate(101,45)"/>
<path d="M0 0 C1.65 0.33 3.3 0.66 5 1 C5 1.66 5 2.32 5 3 C3.68 3 2.36 3 1 3 C1 3.66 1 4.32 1 5 C-0.32 4.67 -1.64 4.34 -3 4 C-2.01 2.68 -1.02 1.36 0 0 Z " fill="#14588E" transform="translate(124,33)"/>
<path d="M0 0 C-0.75 2.4375 -0.75 2.4375 -2 5 C-4.125 5.8125 -4.125 5.8125 -6 6 C-6 3 -6 3 -4.6875 1.3125 C-3 0 -3 0 0 0 Z " fill="#6F9AAB" transform="translate(148,162)"/>
<path d="M0 0 C2.97 0.33 5.94 0.66 9 1 C8.67 1.99 8.34 2.98 8 4 C6.35 4 4.7 4 3 4 C3 3.01 3 2.02 3 1 C1.68 1.33 0.36 1.66 -1 2 C-0.67 1.34 -0.34 0.68 0 0 Z " fill="#8198A9" transform="translate(133,147)"/>
<path d="M0 0 C0 0.99 0 1.98 0 3 C-1.98 3 -3.96 3 -6 3 C-6 3.99 -6 4.98 -6 6 C-6.66 5.67 -7.32 5.34 -8 5 C-5.96115496 0.48541456 -5.19128917 0 0 0 Z " fill="#63A9C7" transform="translate(70,155)"/>
<path d="M0 0 C-1.32 0.33 -2.64 0.66 -4 1 C-4 1.66 -4 2.32 -4 3 C-2.02 3 -0.04 3 2 3 C2 3.33 2 3.66 2 4 C-4.625 4.125 -4.625 4.125 -8 3 C-8 2.34 -8 1.68 -8 1 C-5.29120665 -0.35439668 -2.99066732 -0.06501451 0 0 Z " fill="#125D9E" transform="translate(132,103)"/>
<path d="M0 0 C1.8871875 0.0309375 1.8871875 0.0309375 3.8125 0.0625 C3.4825 0.7225 3.1525 1.3825 2.8125 2.0625 C0.48754723 2.44999213 -1.8474583 2.78008117 -4.1875 3.0625 C-5.1775 3.3925 -6.1675 3.7225 -7.1875 4.0625 C-7.1875 3.0725 -7.1875 2.0825 -7.1875 1.0625 C-4.43671116 0.14557039 -2.82801087 -0.04636083 0 0 Z " fill="#1E5B93" transform="translate(123.1875,79.9375)"/>
<path d="M0 0 C1.98 0 3.96 0 6 0 C6 0.66 6 1.32 6 2 C2.7 2.66 -0.6 3.32 -4 4 C-4 3.34 -4 2.68 -4 2 C-2.68 2 -1.36 2 0 2 C0 1.34 0 0.68 0 0 Z " fill="#12497B" transform="translate(129,34)"/>
<path d="M0 0 C3.3 0 6.6 0 10 0 C7.23776722 2.76223278 4.79293383 2.57856291 1 3 C0.67 2.01 0.34 1.02 0 0 Z " fill="#19548E" transform="translate(65,102)"/>
<path d="M0 0 C1.65 0.99 3.3 1.98 5 3 C4.01 3.66 3.02 4.32 2 5 C0.68 4.34 -0.64 3.68 -2 3 C-1.34 2.67 -0.68 2.34 0 2 C0 1.34 0 0.68 0 0 Z " fill="#66AEC2" transform="translate(164,158)"/>
<path d="M0 0 C1.9375 0.8125 1.9375 0.8125 4 2 C4.33 2.99 4.66 3.98 5 5 C4.01 5.33 3.02 5.66 2 6 C0 3 0 3 0 0 Z " fill="#7EA2BE" transform="translate(50,156)"/>
<path d="M0 0 C1.98 0.66 3.96 1.32 6 2 C6 2.33 6 2.66 6 3 C3.03 3 0.06 3 -3 3 C-2.01 2.01 -1.02 1.02 0 0 Z " fill="#1D5E90" transform="translate(76,79)"/>
<path d="M0 0 C0.66 1.32 1.32 2.64 2 4 C0.68 4 -0.64 4 -2 4 C-1.34 2.68 -0.68 1.36 0 0 Z " fill="#6899A8" transform="translate(113,146)"/>
<path d="" fill="#808080" transform="translate(0,0)"/>
<path d="" fill="#00FFFF" transform="translate(0,0)"/>
<path d="" fill="#000000" transform="translate(0,0)"/>
</svg>
